<svg width="46" height="51" viewBox="0 0 46 51" fill="none" xmlns="http://www.w3.org/2000/svg">
<path d="M37.7736 6.2985C37.5696 6.2985 37.3656 6.2475 37.1871 6.1455C32.2911 3.621 28.0581 2.55 22.9836 2.55C17.9346 2.55 13.1406 3.7485 8.78006 6.1455C8.16806 6.477 7.40306 6.2475 7.04606 5.6355C6.71456 5.0235 6.94406 4.233 7.55606 3.9015C12.2991 1.326 17.5011 0 22.9836 0C28.4151 0 33.1581 1.1985 38.3601 3.876C38.9976 4.2075 39.2271 4.9725 38.8956 5.5845C38.6661 6.0435 38.2326 6.2985 37.7736 6.2985ZM1.28306 19.686C1.02806 19.686 0.773055 19.6095 0.543555 19.4565C-0.0429449 19.0485 -0.170445 18.258 0.237555 17.6715C2.76206 14.1015 5.97506 11.2965 9.80006 9.333C17.8071 5.202 28.0581 5.1765 36.0906 9.3075C39.9156 11.271 43.1286 14.0505 45.6531 17.595C46.0611 18.156 45.9336 18.972 45.3471 19.38C44.7606 19.788 43.9701 19.6605 43.5621 19.074C41.2671 15.861 38.3601 13.3365 34.9176 11.577C27.5991 7.8285 18.2406 7.8285 10.9476 11.6025C7.47956 13.3875 4.57256 15.9375 2.27756 19.1505C2.07356 19.5075 1.69106 19.686 1.28306 19.686ZM17.2206 50.4645C16.8891 50.4645 16.5576 50.337 16.3281 50.082C14.1096 47.8635 12.9111 46.4355 11.2026 43.35C9.44306 40.2135 8.52506 36.3885 8.52506 32.283C8.52506 24.7095 15.0021 18.5385 22.9581 18.5385C30.9141 18.5385 37.3911 24.7095 37.3911 32.283C37.3911 32.997 36.8301 33.558 36.1161 33.558C35.4021 33.558 34.8411 32.997 34.8411 32.283C34.8411 26.112 29.5116 21.0885 22.9581 21.0885C16.4046 21.0885 11.0751 26.112 11.0751 32.283C11.0751 35.955 11.8911 39.3465 13.4466 42.1005C15.0786 45.033 16.2006 46.2825 18.1641 48.2715C18.6486 48.7815 18.6486 49.572 18.1641 50.082C17.8836 50.337 17.5521 50.4645 17.2206 50.4645ZM35.5041 45.747C32.4696 45.747 29.7921 44.982 27.5991 43.4775C23.7996 40.902 21.5301 36.72 21.5301 32.283C21.5301 31.569 22.0911 31.008 22.8051 31.008C23.5191 31.008 24.0801 31.569 24.0801 32.283C24.0801 35.8785 25.9161 39.27 29.0271 41.361C30.8376 42.585 32.9541 43.1715 35.5041 43.1715C36.1161 43.1715 37.1361 43.095 38.1561 42.9165C38.8446 42.789 39.5076 43.248 39.6351 43.962C39.7626 44.6505 39.3036 45.3135 38.5896 45.441C37.1361 45.7215 35.8611 45.747 35.5041 45.747ZM30.3786 51C30.2766 51 30.1491 50.9745 30.0471 50.949C25.9926 49.827 23.3406 48.3225 20.5611 45.594C16.9911 42.0495 15.0276 37.332 15.0276 32.283C15.0276 28.152 18.5466 24.786 22.8816 24.786C27.2166 24.786 30.7356 28.152 30.7356 32.283C30.7356 35.0115 33.1071 37.23 36.0396 37.23C38.9721 37.23 41.3436 35.0115 41.3436 32.283C41.3436 22.6695 33.0561 14.8665 22.8561 14.8665C15.6141 14.8665 8.98406 18.8955 6.00056 25.143C5.00606 27.2085 4.49606 29.631 4.49606 32.283C4.49606 34.272 4.67456 37.4085 6.20456 41.4885C6.45956 42.1515 6.12806 42.891 5.46506 43.1205C4.80206 43.3755 4.06256 43.0185 3.83306 42.381C2.58356 39.0405 1.97156 35.7255 1.97156 32.283C1.97156 29.223 2.55806 26.4435 3.70556 24.021C7.09706 16.9065 14.6196 12.291 22.8561 12.291C34.4586 12.291 43.8936 21.2415 43.8936 32.2575C43.8936 36.3885 40.3746 39.7545 36.0396 39.7545C31.7046 39.7545 28.1856 36.3885 28.1856 32.2575C28.1856 29.529 25.8141 27.3105 22.8816 27.3105C19.9491 27.3105 17.5776 29.529 17.5776 32.2575C17.5776 36.618 19.2606 40.698 22.3461 43.758C24.7686 46.155 27.0891 47.481 30.6846 48.4755C31.3731 48.654 31.7556 49.368 31.5771 50.031C31.4496 50.6175 30.9141 51 30.3786 51Z" fill="#4318FF"/>
</svg>
